<?xml version="1.0" encoding="UTF-8"?>
<svg id="Calque_2" data-name="Calque 2" xmlns="http://www.w3.org/2000/svg" viewBox="0 0 669.47 843.06">
  <defs>
    <style>
      .cls-1 {
        fill: #fff;
        fill-rule: evenodd;
      }
    </style>
  </defs>
  <g id="Calque_1-2" data-name="Calque 1">
    <g>
      <path class="cls-1" d="M584.45,843.06c-51.49,0-85.02-37.11-85.02-85.02,0-50.29,33.53-85.02,85.02-85.02,47.9,0,85.02,34.73,85.02,85.02s-37.12,85.02-85.02,85.02ZM509.01,68.26c0-50.29,38.32-68.26,75.44-68.26s74.25,17.97,74.25,68.26v471.82c0,47.91-37.12,65.86-74.25,65.86s-75.44-17.95-75.44-65.86V68.26Z"/>
      <path class="cls-1" d="M419.26,608.7c-13.99-38.38-37.71-73.72-73.83-94.23-34.28-19.47-72.82-21.52-111.26-19.27-83.67,4.9-188.38,24.94-222.16,113.05-8.69,22.66-12.01,47.08-12.01,71.25,0,42.26,13.5,85.14,43.92,115.42,34.76,34.59,87.23,45.15,134.84,47.7,87.92,4.69,206.76-28.16,242.24-118.51,14.54-37.03,11.71-78.51-1.74-115.41ZM288.08,710.84h-16.72c-8.87,0-16.05,7.19-16.05,16.05v16.72c0,23.92-20.01,43.15-44.21,41.89-22.68-1.19-39.69-21.54-39.69-44.26v-14.35c0-8.87-7.19-16.05-16.05-16.05h-16.72c-23.91,0-43.15-19.99-41.89-44.19,1.18-22.68,21.54-39.7,44.25-39.7h14.36c8.87,0,16.05-7.19,16.05-16.05v-16.74c0-23.92,20.01-43.15,44.21-41.88,22.68,1.19,39.69,21.54,39.69,44.26v14.36c0,8.87,7.19,16.05,16.05,16.05h14.36c22.71,0,43.07,17.02,44.25,39.7,1.26,24.19-17.98,44.19-41.89,44.19Z"/>
    </g>
  </g>
</svg>