<?xml version="1.0" encoding="UTF-8"?>
<svg id="Capa_1" xmlns="http://www.w3.org/2000/svg" version="1.1" xmlns:xlink="http://www.w3.org/1999/xlink" viewBox="0 0 432.9 432.9">
  <!-- Generator: Adobe Illustrator 29.2.1, SVG Export Plug-In . SVG Version: 2.1.0 Build 116)  -->
  <defs>
    <style>
      .st0 {
        fill: #fff;
      }
    </style>
  </defs>
  <path id="Path_2520" class="st0" d="M368.9,368.9h-64.1v-100.5c0-24-.4-54.8-33.4-54.8s-38.5,26.1-38.5,53.1v102.2h-64.1v-206.6h61.6v28.2h.9c12.6-21.5,35.9-34.3,60.8-33.4,65,0,77,42.8,77,98.4v113.3ZM96.3,134c-20.6,0-37.2-16.7-37.2-37.2s16.7-37.2,37.2-37.2,37.2,16.7,37.2,37.2c0,20.6-16.7,37.2-37.2,37.2h0M128.4,368.9h-64.2v-206.6h64.2v206.6ZM400.9,0H31.9C14.5-.2.2,13.8,0,31.2v370.4c.2,17.5,14.5,31.4,31.9,31.2h368.9c17.5.2,31.8-13.8,32.1-31.2V31.2C432.7,13.7,418.3-.2,400.9,0"/>
</svg>