<?xml version="1.0" encoding="utf-8"?>
<svg xmlns="http://www.w3.org/2000/svg" viewBox="0 0 272.56 218.95"><defs><style>.a{fill:#fff;}</style></defs><title>GA logo</title><path class="a" d="M5.91,6.5H266.29V212.34H5.91Zm-6.16,212H272.44V.34H-.25Z"/><path class="a" d="M41.63,170.76,45.09,160a.48.48,0,0,1,.92,0l3.56,10.77a.49.49,0,0,1-.46.64h-7a.49.49,0,0,1-.46-.64m2.24-18.29L33,186.13a.49.49,0,0,0,.46.64h2.63a.51.51,0,0,0,.47-.34l3.57-11.05a.48.48,0,0,1,.46-.34h10a.47.47,0,0,1,.46.34l3.65,11.05a.48.48,0,0,0,.46.34h2.63a.5.5,0,0,0,.47-.65L47.2,152.47a.51.51,0,0,0-.47-.34h-2.4a.48.48,0,0,0-.46.34"/><path class="a" d="M77.25,162.2A10.86,10.86,0,0,0,73,160.63a11.09,11.09,0,0,0-1.43-.09A9,9,0,0,0,66.59,162a11.34,11.34,0,0,0-1.51,1.15.49.49,0,0,1-.82-.36v-1.09a.49.49,0,0,0-.49-.48H61.28a.49.49,0,0,0-.49.48v24.55a.48.48,0,0,0,.49.48h2.49a.48.48,0,0,0,.49-.48V172.89A8.7,8.7,0,0,1,67,166.33a6.66,6.66,0,0,1,4.68-2.14,3.37,3.37,0,0,1,.69.07,7.1,7.1,0,0,1,2.79,1,6,6,0,0,1,1.7,2.17,12.25,12.25,0,0,1,1,5.63v13.23a.48.48,0,0,0,.49.48H81a.47.47,0,0,0,.48-.48V173.05A16.43,16.43,0,0,0,80,165.47a9.19,9.19,0,0,0-2.74-3.27"/><path class="a" d="M101.11,174.62a9.58,9.58,0,0,1-2.78,7.19A6.7,6.7,0,0,1,93.65,184c-2.06,0-3.73-1.26-5.1-3.85A10.62,10.62,0,0,1,87.43,175a14.85,14.85,0,0,1,.79-4.76,9.64,9.64,0,0,1,2.29-3.87,7,7,0,0,1,4.91-2.11h.5c.59,0,2.19.1,4.77.29a.48.48,0,0,1,.45.47c0,1.64,0,4.83,0,9.55m3.47-12.81a.5.5,0,0,0-.44-.49l-.26,0c-3-.33-5.5-.51-7.49-.54a10.05,10.05,0,0,0-8,2.87,14.62,14.62,0,0,0-4.33,8.8,21.93,21.93,0,0,0-.16,2.54,14.71,14.71,0,0,0,2.53,8.57,8.71,8.71,0,0,0,7.38,4.06,9.27,9.27,0,0,0,6.57-2.75c.26-.25.52-.51.75-.76v3.5c-.07,3.6-.92,6.2-2.52,7.73a7.21,7.21,0,0,1-5.21,2,27.89,27.89,0,0,1-4.56-.49l-.3-.05a.48.48,0,0,0-.56.4l-.44,2.62a.48.48,0,0,0,.4.56l.29,0a28.87,28.87,0,0,0,4.83.51,20.31,20.31,0,0,0,2.28-.13,9.54,9.54,0,0,0,5.3-2.45c2.57-2.46,3.9-6,4-10.66,0-2,0-4.13,0-6.44Z"/><path class="a" d="M117.73,183.7a6.38,6.38,0,0,1-5.29-2.5,11.21,11.21,0,0,1-2.06-7.15,10.68,10.68,0,0,1,2.29-6.87,6,6,0,0,1,10.12,0,10.74,10.74,0,0,1,2.29,6.87,11.13,11.13,0,0,1-2.1,7.11,6.36,6.36,0,0,1-5.25,2.54m0-22.95a9.76,9.76,0,0,0-7.63,4,14.25,14.25,0,0,0-3.23,9.33c0,4,1,7.28,3,9.65a10.55,10.55,0,0,0,15.92,0c1.89-2.33,2.85-5.6,2.85-9.68a14.26,14.26,0,0,0-3.21-9.32,9.72,9.72,0,0,0-7.65-4"/><path class="a" d="M146.43,179.09a.47.47,0,0,1,0,.17,6.8,6.8,0,0,1-1.62,2.55,6.55,6.55,0,0,1-4.46,2.1,4.48,4.48,0,0,1-4.57-2.8,16.56,16.56,0,0,1-1-6v-13.3a.49.49,0,0,0-.49-.49h-2.56a.49.49,0,0,0-.49.49V175a19,19,0,0,0,1.41,8.09c1.14,2.36,3.34,3.82,6.54,4.33a9.87,9.87,0,0,0,1.35.09,8.64,8.64,0,0,0,5.18-1.7.49.49,0,0,1,.78.39v0a.48.48,0,0,0,.48.49h2.46a.48.48,0,0,0,.48-.49V161.78a.48.48,0,0,0-.48-.49h-2.46a.48.48,0,0,0-.48.49Z"/><path class="a" d="M154.68,186.85h2.49a.49.49,0,0,0,.49-.49V147.61a.49.49,0,0,0-.49-.49h-2.49a.49.49,0,0,0-.49.49v38.75a.49.49,0,0,0,.49.49"/><path class="a" d="M177.33,171.19H165.41a.5.5,0,0,1-.47-.64,8.81,8.81,0,0,1,2.36-3.92,6.55,6.55,0,0,1,4.6-2.11c2,0,3.71,1.25,5.07,3.84a8.38,8.38,0,0,1,.84,2.22.5.5,0,0,1-.48.61M173.26,161a8.39,8.39,0,0,0-1.47-.14,9.19,9.19,0,0,0-6.56,2.79,13.37,13.37,0,0,0-4.14,9,4.26,4.26,0,0,0,0,.63v1.87c.45,4.06,1.83,7.23,4.1,9.42a10.51,10.51,0,0,0,7.57,2.88h.16c.65,0,1.33-.08,2-.17a27.46,27.46,0,0,0,5.06-1.15l.55-.17v-3a.49.49,0,0,0-.63-.46l-.39.11c-1.65.5-2.67.8-3.13.91a11.13,11.13,0,0,1-3.1.41l-.85,0a7.08,7.08,0,0,1-5.13-2.1c-1.3-1.25-2.2-3.44-2.65-6.53a3,3,0,0,1-.06-.4h16.54a.48.48,0,0,0,.48-.47V174a15.14,15.14,0,0,0-1.92-8.2,9.22,9.22,0,0,0-6.44-4.86"/><path class="a" d="M210.83,160.52a7.81,7.81,0,0,0-1.44-.14,9,9,0,0,0-6.37,2.74,11.07,11.07,0,0,0-1.05,1.13.48.48,0,0,1-.78,0,8.39,8.39,0,0,0-6.08-3.69,7.7,7.7,0,0,0-1.43-.14,8.6,8.6,0,0,0-5.18,1.7.49.49,0,0,1-.78-.39.47.47,0,0,0-.48-.48h-2.49a.48.48,0,0,0-.49.48v24.63a.49.49,0,0,0,.49.49h2.49a.48.48,0,0,0,.48-.49V168.89a.57.57,0,0,1,0-.18,6.45,6.45,0,0,1,1.59-2.5,6.56,6.56,0,0,1,4.49-2.15,4.5,4.5,0,0,1,4.61,2.84,16.56,16.56,0,0,1,1,6v13.39a.49.49,0,0,0,.49.49h2.56a.49.49,0,0,0,.49-.49V173c0-.92,0-1.69,0-2.26a.41.41,0,0,1,0-.11,7.61,7.61,0,0,1,2.06-4.43,6.56,6.56,0,0,1,4.49-2.15,4.52,4.52,0,0,1,4.62,2.84,16.8,16.8,0,0,1,1,6v13.39a.49.49,0,0,0,.49.49h2.56a.49.49,0,0,0,.49-.49V173a19.65,19.65,0,0,0-1.4-8.17c-1.15-2.39-3.35-3.85-6.5-4.32"/><path class="a" d="M237.16,171.19H225.23a.5.5,0,0,1-.47-.64,8.81,8.81,0,0,1,2.36-3.92,6.55,6.55,0,0,1,4.6-2.11c2.05,0,3.71,1.25,5.07,3.84a8.38,8.38,0,0,1,.84,2.22.5.5,0,0,1-.47.61m2.36-5.36a9.18,9.18,0,0,0-6.44-4.86,8.3,8.3,0,0,0-1.47-.14,9.19,9.19,0,0,0-6.56,2.79,13.37,13.37,0,0,0-4.14,9,4.26,4.26,0,0,0,0,.63v1.87c.45,4.06,1.83,7.23,4.1,9.42a10.51,10.51,0,0,0,7.57,2.88h.17c.64,0,1.33-.09,2-.18a27.75,27.75,0,0,0,5.07-1.15l.54-.17v-3a.49.49,0,0,0-.63-.46l-.39.11c-1.65.5-2.67.8-3.13.91a11.11,11.11,0,0,1-3.09.41l-.86,0a7.11,7.11,0,0,1-5.13-2.1c-1.3-1.25-2.19-3.43-2.65-6.53l-.06-.4H241a.49.49,0,0,0,.49-.47V174a15.23,15.23,0,0,0-1.93-8.2"/><path class="a" d="M170.33,153.83h2a.5.5,0,0,1,.41.22l2.3,3.41a.49.49,0,0,1-.41.76H173.3a.5.5,0,0,1-.42-.23l-1.13-1.81a.49.49,0,0,0-.82,0L169.8,158a.5.5,0,0,1-.42.23H168a.49.49,0,0,1-.41-.76l2.3-3.41a.5.5,0,0,1,.4-.22"/><path class="a" d="M132.89,28.41c35.73,5.24,42.69,10.41,45.1,11.8a.62.62,0,0,0,.91-.43c.63-3.5,3.88-5.72,8.07-9a.48.48,0,0,0-.2-.86c-4.59-.91-24.06-4.24-53.87-2a.22.22,0,0,0,0,.44"/><path class="a" d="M122.77,29.77a.3.3,0,0,0-.07-.6C99.08,31.06,22.87,55.32,40.46,69.09c8.4,5,39.3-1.09,34.48-4C39.51,66.2,92.53,38,122.77,29.77"/><path class="a" d="M210.11,39.49c-4.79-.78-4.32,8-4.36,11.79,0,.55,1.23,1.45,1.63,1.14,11.58-6.51,5.33-9,35.62,9.38.49.27.74,0,.35-.39-4.86-5-25-20.58-33.24-21.92"/><path class="a" d="M67.44,87.2c-6.59,0-11.73,1.3-15.28,3.84A24.1,24.1,0,0,0,45.41,98v0h0c-2.31,3.63-4,10.46-3.86,18.84,0,.88.25,3.13.25,3.13.45,5.67,1.66,10.25,3.61,13.63h0v0a24.28,24.28,0,0,0,6.76,6.93c3.55,2.55,8.69,3.84,15.28,3.84,4.2,0,7.74-.09,10.53-.27h0l2.23-.2,1.77-.16V113.33H61.5v7.16H74.73v16.66c-2.85.14-5.55.22-8.08.22-4.18,0-7.43-.83-9.65-2.47a18,18,0,0,1-4.91-5c-1.67-2.83-2.71-7.1-3.08-12.7l0-1.42,0-1.54c.37-5.56,1.41-9.81,3.07-12.63h0a17,17,0,0,1,4.89-5c2.23-1.62,5.48-2.45,9.66-2.45,2.29,0,5.72.2,10.18.58l2.11.19V87.88l-1.78-.15c-4.23-.35-7.5-.53-9.72-.53"/><path class="a" d="M109.33,101.46l-2.46.68A19,19,0,0,0,99.5,106h0c-.28.25-.56.51-.83.78v-4.74H91.49v41.8h7.16V124.12a23.26,23.26,0,0,1,.37-2.63c.71-4.37,2.34-7.7,4.85-9.91a13,13,0,0,1,4.16-2.39l1.3-.46Z"/><path class="a" d="M122.16,132.36a14.81,14.81,0,0,1-1.83-7.59,20.39,20.39,0,0,1,1.32-7.18,14.17,14.17,0,0,1,3.71-5.83,11.71,11.71,0,0,1,8-3.22l.86,0h.14c1,0,3.83.17,8.33.51v15c0,4.56-1.51,8.07-4.5,10.72a11.68,11.68,0,0,1-7.76,3.19c-3.31,0-6-1.85-8.28-5.66m11.46-30.87h0A18.41,18.41,0,0,0,121,106.22a23.34,23.34,0,0,0-7.64,14.24,26,26,0,0,0-.35,4.18,22.55,22.55,0,0,0,4.52,14,15.91,15.91,0,0,0,13.14,6.66,17.38,17.38,0,0,0,11.69-4.48h0l.3-.28v3.38h7.16v-41.2l-1.72-.19c-5.13-.57-9.49-.89-13-.93-.53,0-1-.06-1.55-.06"/><path class="a" d="M177.52,101a17.31,17.31,0,0,0-8.81,2.43,20.8,20.8,0,0,0-3.19,2.29v-3.61h-7.16v41.74h7.16V121.23a12.48,12.48,0,0,1,4.51-9.8,11.53,11.53,0,0,1,7.76-3.25,12.68,12.68,0,0,1,5.76,1.59,11.27,11.27,0,0,1,2.84,3.26c.86,1.38,1.57,4.7,1.57,8.47v22.37h7.29V121.5c0-5.29-.86-9.34-2.62-12.37h0a15.91,15.91,0,0,0-5-5.4,20.34,20.34,0,0,0-7.54-2.53H180a23.22,23.22,0,0,0-2.52-.14"/><path class="a" d="M217.86,138c-3.35,0-6.05-1.85-8.27-5.65h0a14.52,14.52,0,0,1-1.88-7.58,20.39,20.39,0,0,1,1.32-7.18,13.77,13.77,0,0,1,3.76-5.81h0v0a11.64,11.64,0,0,1,7.94-3.21c.58,0,4.86.21,9.44.55,0,2.1,0,6.43-.05,15,0,4.57-1.53,8.08-4.57,10.73a11.6,11.6,0,0,1-7.7,3.19m19.36-58h-7.09V102c-3.23-.27-5.8-.41-7.68-.41-5.79,0-10.52,1.58-14,4.68a23.27,23.27,0,0,0-7.65,14.24,25.91,25.91,0,0,0-.35,4.18,22.5,22.5,0,0,0,4.52,13.94,15.89,15.89,0,0,0,13.14,6.67,17.42,17.42,0,0,0,11.69-4.47h0l.37-.34v3.44h7.09Z"/></svg>