<svg id="_1" data-name="1" xmlns="http://www.w3.org/2000/svg" width="173.591" height="159.435" viewBox="0 0 173.591 159.435">
  <g id="Groupe_51" data-name="Groupe 51" transform="translate(38.947)">
    <path id="Tracé_127" data-name="Tracé 127" d="M409.588,790.361a17.8,17.8,0,1,0,17.61,17.733A17.582,17.582,0,0,0,409.588,790.361Z" transform="translate(-361.305 -761.165)" fill="#fff"/>
    <path id="Tracé_128" data-name="Tracé 128" d="M422.7,758.057v62.065H407.8l-.37-8c-4.679,5.787-11.7,9.236-20.934,9.236-16.748,0-30.663-14.285-30.663-32.387,0-17.979,13.915-32.388,30.663-32.388,8.866,0,15.639,3.2,20.2,8.5v-7.019H422.7v-16.02h-36.2c-24.926,0-45.2,21.053-45.2,46.929,0,20.552,12.8,38.048,30.55,44.383v21.9c9.1-11.224,22.374-18.266,39.6-19.351h25.8V758.057Z" transform="translate(-341.29 -742.037)" fill="#fff"/>
  </g>
  <g id="Groupe_52" data-name="Groupe 52" transform="translate(22.071 138.791)">
    <path id="Tracé_129" data-name="Tracé 129" d="M318.452,981.983v10.251h-5.094V972.271h1.587l10.159,9.8v-9.712H330.2v19.934h-1.5Z" transform="translate(-313.358 -971.959)" fill="#fff"/>
    <path id="Tracé_130" data-name="Tracé 130" d="M356.73,971.989c3.869,0,7.9,2.016,8.935,6.844h-4.954a3.991,3.991,0,0,0-3.98-2.187c-3.145,0-4.871,2.527-4.871,5.537,0,3.322,1.892,5.452,4.871,5.452,2,0,3.284-.511,4.2-2.414h-4.147v-4.373h9.185a14.536,14.536,0,0,1-.529,5.764c-1.419,4.174-5.093,5.764-8.712,5.764a10.2,10.2,0,0,1,0-20.389Z" transform="translate(-326.559 -971.847)" fill="#fff"/>
    <path id="Tracé_131" data-name="Tracé 131" d="M392.238,992.4c-5.149,0-9.965-3.407-9.965-10.308,0-6.872,4.983-10.336,10.048-10.336,4.982,0,9.936,3.464,9.936,10.336C402.258,988.167,398.138,992.4,392.238,992.4Zm.028-4.912c2.422,0,4.9-1.846,4.9-5.4s-2.422-5.4-4.843-5.4c-2.533,0-4.954,1.761-4.954,5.4C387.367,985.64,389.76,987.486,392.266,987.486Z" transform="translate(-340.636 -971.754)" fill="#fff"/>
    <path id="Tracé_132" data-name="Tracé 132" d="M420.554,985.73V972.412h5.094v13.2c0,1.647,1.419,2.357,2.866,2.357,1.364,0,2.811-.71,2.811-2.357v-13.2h5.038V985.73c0,4.458-3.785,6.815-7.877,6.815C424.367,992.545,420.554,990.188,420.554,985.73Z" transform="translate(-355.788 -972.014)" fill="#fff"/>
    <path id="Tracé_133" data-name="Tracé 133" d="M458.723,987.633h7.042v4.657H453.63V972.412h5.093Z" transform="translate(-368.88 -972.014)" fill="#fff"/>
    <path id="Tracé_134" data-name="Tracé 134" d="M522.112,972.318h1.81v19.934h-5.093V983.08l-4.148,4.43H514.1l-4.147-4.43v9.172h-5.094V972.318h1.81l7.738,8.6Z" transform="translate(-389.156 -971.977)" fill="#fff"/>
  </g>
  <g id="Groupe_53" data-name="Groupe 53" transform="translate(124.552 134.427)">
    <path id="Tracé_135" data-name="Tracé 135" d="M487.282,967.154l-.958-1.086-.928,1.086h-2.418v-.233l2.114-2.39h2.479l2.084,2.39v.233Z" transform="translate(-482.978 -964.532)" fill="#fff"/>
  </g>
  <g id="Groupe_54" data-name="Groupe 54" transform="translate(121.683 139.188)">
    <rect id="Rectangle_27" data-name="Rectangle 27" width="12.163" height="4.515" fill="#fff"/>
    <path id="Tracé_136" data-name="Tracé 136" d="M483.323,989.2h6.513V984.77H478.229v12.411h12.414v-4.742h-7.32Z" transform="translate(-478.229 -977.303)" fill="#fff"/>
  </g>
  <g id="Groupe_55" data-name="Groupe 55" transform="translate(161.176 139.188)">
    <path id="Tracé_137" data-name="Tracé 137" d="M555.2,984.31v-4.543h-6.513v-2.84h7.069v-4.515H543.6v11.9Z" transform="translate(-543.597 -972.412)" fill="#fff"/>
    <rect id="Rectangle_28" data-name="Rectangle 28" width="12.414" height="4.742" transform="translate(0 15.135)" fill="#fff"/>
  </g>
  <path id="Tracé_138" data-name="Tracé 138" d="M288.1,972.083h-2.338l-8.935,19.366v.71h5.316l4.76-11.614,2.032,4.8h-1.852l-1.768,4.345h5.235l1.141,2.47h5.26v-.71Z" transform="translate(-276.828 -833.094)" fill="#fff"/>
  <g id="Groupe_56" data-name="Groupe 56" transform="translate(42.753 119.3)">
    <path id="Tracé_139" data-name="Tracé 139" d="M348.712,951.282a4.344,4.344,0,0,1-1.122-3.083,4.2,4.2,0,0,1,1.115-3.037,3.728,3.728,0,0,1,2.806-1.16,3.371,3.371,0,0,1,1.833.494,3.232,3.232,0,0,1,1.189,1.287v-1.646h1.377v8.215h-1.377v-1.675a3.259,3.259,0,0,1-1.189,1.309,3.334,3.334,0,0,1-1.833.5A3.668,3.668,0,0,1,348.712,951.282Zm5.006-.8a3.457,3.457,0,0,0,0-4.459,2.639,2.639,0,0,0-1.961-.838,2.685,2.685,0,0,0-1.96.808,2.955,2.955,0,0,0-.816,2.2,3.149,3.149,0,0,0,.823,2.26,2.67,2.67,0,0,0,3.913.03Z" transform="translate(-347.59 -941.278)" fill="#fff"/>
    <path id="Tracé_140" data-name="Tracé 140" d="M369.474,942.218a3.728,3.728,0,0,1,2.806,1.16,4.2,4.2,0,0,1,1.115,3.037,4.341,4.341,0,0,1-1.123,3.083,3.666,3.666,0,0,1-2.8,1.2,3.331,3.331,0,0,1-1.832-.5,3.374,3.374,0,0,1-1.2-1.309v1.675h-1.362V939.494h1.362V944a3.339,3.339,0,0,1,3.037-1.781Zm-.262,7.317a2.605,2.605,0,0,0,1.96-.86,3.149,3.149,0,0,0,.816-2.26,2.966,2.966,0,0,0-.816-2.207,2.684,2.684,0,0,0-1.96-.808,2.638,2.638,0,0,0-1.96.838,3.445,3.445,0,0,0,0,4.452A2.625,2.625,0,0,0,369.212,949.535Z" transform="translate(-354.511 -939.494)" fill="#fff"/>
    <path id="Tracé_141" data-name="Tracé 141" d="M381.173,946.456a2.182,2.182,0,0,1,.861-1.744,3.385,3.385,0,0,1,2.229-.711,3.107,3.107,0,0,1,2.147.7,2.664,2.664,0,0,1,.852,1.907h-1.406a1.573,1.573,0,0,0-.464-1.107,1.664,1.664,0,0,0-1.2-.419,1.838,1.838,0,0,0-1.212.367,1.168,1.168,0,0,0-.442.943.994.994,0,0,0,.5.891,3.6,3.6,0,0,0,1.212.456q.71.142,1.422.329a2.571,2.571,0,0,1,1.212.7,2.018,2.018,0,0,1,.5,1.466,1.945,1.945,0,0,1-.86,1.6,3.608,3.608,0,0,1-2.237.651,3.345,3.345,0,0,1-2.207-.688,2.552,2.552,0,0,1-.906-1.9h1.407a1.5,1.5,0,0,0,.486,1.1,1.811,1.811,0,0,0,1.257.411,2.043,2.043,0,0,0,1.257-.344,1.052,1.052,0,0,0,.456-.875,1.068,1.068,0,0,0-.359-.846,1.994,1.994,0,0,0-.9-.434q-.539-.12-1.175-.284t-1.174-.352a1.908,1.908,0,0,1-.9-.651A1.848,1.848,0,0,1,381.173,946.456Z" transform="translate(-360.883 -941.278)" fill="#fff"/>
    <path id="Tracé_142" data-name="Tracé 142" d="M394.934,951.319a4.224,4.224,0,0,1-1.13-3.068,4.146,4.146,0,0,1,1.182-3.075,4.324,4.324,0,0,1,5.926,0,4.136,4.136,0,0,1,1.182,3.067,4.043,4.043,0,0,1-1.234,3.068,4.21,4.21,0,0,1-3.015,1.174A3.873,3.873,0,0,1,394.934,951.319Zm2.91.045a2.755,2.755,0,0,0,2-.831,3.071,3.071,0,0,0,.846-2.3,3.129,3.129,0,0,0-.808-2.29,2.654,2.654,0,0,0-1.968-.823,2.557,2.557,0,0,0-1.938.823,3.214,3.214,0,0,0-.778,2.3,3.292,3.292,0,0,0,.748,2.3A2.458,2.458,0,0,0,397.844,951.364Z" transform="translate(-365.882 -941.278)" fill="#fff"/>
    <path id="Tracé_143" data-name="Tracé 143" d="M410.348,950.567V939.494h1.361v11.073Z" transform="translate(-372.431 -939.494)" fill="#fff"/>
    <path id="Tracé_144" data-name="Tracé 144" d="M422.057,944.224h1.362v8.215h-1.362v-1.317a2.842,2.842,0,0,1-2.678,1.451,3.1,3.1,0,0,1-2.274-.905,3.452,3.452,0,0,1-.913-2.566v-4.879h1.347v4.654a2.655,2.655,0,0,0,.606,1.878,2.424,2.424,0,0,0,3.307,0,2.656,2.656,0,0,0,.606-1.878Z" transform="translate(-374.744 -941.366)" fill="#fff"/>
    <path id="Tracé_145" data-name="Tracé 145" d="M433.231,944.136v1.332A2.856,2.856,0,0,1,435.909,944a3.263,3.263,0,0,1,1.706.456,2.864,2.864,0,0,1,1.152,1.324,3.357,3.357,0,0,1,1.22-1.309,3.3,3.3,0,0,1,1.758-.471,3.136,3.136,0,0,1,2.3.905,3.476,3.476,0,0,1,.912,2.581v4.863h-1.347v-4.638a2.651,2.651,0,0,0-.606-1.886,2.446,2.446,0,0,0-3.307,0,2.654,2.654,0,0,0-.606,1.886v4.638h-1.347v-4.638a2.677,2.677,0,0,0-.6-1.886,2.148,2.148,0,0,0-1.654-.644,2.171,2.171,0,0,0-1.661.644,2.651,2.651,0,0,0-.606,1.886v4.638h-1.362v-8.215Z" transform="translate(-380.949 -941.278)" fill="#fff"/>
    <path id="Tracé_146" data-name="Tracé 146" d="M460.219,952.486a3.783,3.783,0,0,1-2.873-1.167,4.294,4.294,0,0,1-1.107-3.083,4.233,4.233,0,0,1,1.122-3.075,4.267,4.267,0,0,1,5.784-.06,3.831,3.831,0,0,1,1.085,2.806,5.12,5.12,0,0,1-.06.808H457.63a2.824,2.824,0,0,0,.771,1.938,2.462,2.462,0,0,0,1.818.71,2.539,2.539,0,0,0,1.414-.374,2.22,2.22,0,0,0,.846-.988h1.466a3.775,3.775,0,0,1-1.339,1.781A3.9,3.9,0,0,1,460.219,952.486Zm1.84-6.651a2.681,2.681,0,0,0-3.621-.015,2.787,2.787,0,0,0-.793,1.908h5.163A2.564,2.564,0,0,0,462.06,945.835Z" transform="translate(-390.595 -941.278)" fill="#fff"/>
    <path id="Tracé_147" data-name="Tracé 147" d="M473.625,944.136v1.332A2.856,2.856,0,0,1,476.3,944a3.1,3.1,0,0,1,2.275.905,3.477,3.477,0,0,1,.913,2.581v4.863h-1.347v-4.638a2.675,2.675,0,0,0-.6-1.886,2.146,2.146,0,0,0-1.654-.644,2.17,2.17,0,0,0-1.66.644,2.651,2.651,0,0,0-.606,1.886v4.638h-1.362v-8.215Z" transform="translate(-396.938 -941.278)" fill="#fff"/>
    <path id="Tracé_148" data-name="Tracé 148" d="M490.009,950h1.123v1.107h-1.377a1.878,1.878,0,0,1-2.14-2.109v-5h-1.062v-1.108h1.062v-2.035h1.377v2.035h2.125V944h-2.125v5a1.08,1.08,0,0,0,.225.778A1.105,1.105,0,0,0,490.009,950Z" transform="translate(-402.594 -940.033)" fill="#fff"/>
  </g>
</svg>
